<svg width="256" height="256" viewBox="0 0 256 256" fill="none" xmlns="http://www.w3.org/2000/svg">
<rect width="256" height="256" fill="#5340FE"/>
<path d="M102.274 96.5462C109.791 92.0594 118.393 89.8209 128.09 89.8209C142.273 89.8209 154.331 94.7916 164.272 104.728C174.213 114.669 179.179 126.727 179.179 140.91C179.179 155.094 174.208 167.152 164.272 177.093C154.331 187.034 142.273 192 128.09 192C113.906 192 101.848 187.029 91.907 177.093C82.9384 168.002 78.0264 157.215 77.1808 144.728L77 140.91V64H89.7272C98.0898 64 102.274 68.2424 102.274 76.7272V96.5462ZM110.455 158.545C115.304 163.393 121.183 165.817 128.09 165.817C134.996 165.817 140.875 163.393 145.724 158.545C150.572 153.696 152.996 147.817 152.996 140.91C152.996 134.004 150.572 128.002 145.724 123.276C140.875 118.428 134.996 116.004 128.09 116.004C121.183 116.004 115.304 118.428 110.455 123.276C105.607 128.002 103.183 133.882 103.183 140.91C103.183 147.939 105.607 153.696 110.455 158.545Z" fill="white"/>
</svg>
